<svg version="1.1" xmlns="http://www.w3.org/2000/svg" xmlns:xlink="http://www.w3.org/1999/xlink" width="640" height="480"><g fill="none" fill-rule="nonzero" stroke="#ff0000" stroke-width="1" stroke-linecap="butt" stroke-linejoin="miter" stroke-miterlimit="10" stroke-dasharray="" stroke-dashoffset="0" font-family="none" font-weight="none" font-size="none" text-anchor="none" style="mix-blend-mode: normal"><path d="M98,200c-6.57576,0 11.39394,0 13,0c8.66667,0 17.33333,0 26,0c31.28037,0 64.05476,-1 95,-1"/><path d="M165,167c-3.20563,0 -2,24.7193 -2,25c0,19 0,38 0,57"/><path d="M94,294c29,0 58,0 87,0"/><path d="M68,337c46.40685,0 93.84289,2.84643 140,-1"/><path d="M137,263c0,10.5335 -0.91258,21.50532 0,32c3.12528,35.94068 9.8738,74.72451 -30,93c-9.82688,4.50398 -19.51664,5 -30,5"/><path d="M98,279c5.8805,5.8805 9.56264,12.95849 15,19c10.0026,11.114 21.75186,18.94044 30,32c4.14012,6.55519 6.42307,14.12129 10,21c14.8252,28.51 31.57144,52.28572 61,67"/></g></svg>